<svg width="310" height="458" viewBox="0 0 310 458" fill="none" xmlns="http://www.w3.org/2000/svg">
<path d="M242.725 416.808L128.755 302.837V218.638H116.078V302.721L2.1073 416.691C1.30799 417.49 0.76312 418.508 0.541397 419.616C0.319674 420.724 0.431028 421.873 0.861416 422.918C1.2918 423.963 2.02195 424.857 2.95979 425.487C3.89762 426.118 5.00113 426.456 6.13117 426.46H7.87562C8.63446 426.487 9.39107 426.363 10.1017 426.096C10.8123 425.828 11.4629 425.422 12.0158 424.902L116.194 320.723V420.855C116.194 422.372 116.797 423.828 117.87 424.901C118.943 425.974 120.399 426.577 121.916 426.577H123.126C124.643 426.577 126.099 425.974 127.172 424.901C128.245 423.828 128.848 422.372 128.848 420.855V320.723L232.98 424.902C234.055 425.973 235.51 426.575 237.027 426.577H238.748C239.874 426.563 240.971 426.218 241.902 425.584C242.833 424.95 243.556 424.056 243.98 423.013C244.405 421.97 244.513 420.825 244.289 419.721C244.066 418.617 243.522 417.604 242.725 416.808Z" fill="#232427"/>
<path d="M140.919 283.718H103.89C102.606 283.718 101.564 284.759 101.564 286.044V300.557C101.564 301.842 102.606 302.883 103.89 302.883H140.919C142.204 302.883 143.245 301.842 143.245 300.557V286.044C143.245 284.759 142.204 283.718 140.919 283.718Z" fill="#47494B"/>
<path d="M201.928 249.666H42.8809V266.552H201.928V249.666Z" fill="#909AA3"/>
<path d="M228.026 0H16.7847V249.666H228.026V0Z" fill="#C1CDD4"/>
<path d="M219.513 8.69901H25.2739V240.99H219.513V8.69901Z" fill="#F6FCF8"/>
<path d="M193.439 269.413C191.694 271.134 187.298 270.274 187.298 270.274C187.298 270.274 186.67 262.668 186.252 258.435C186.136 257.295 186.019 256.411 185.949 255.969C185.624 253.783 189.88 242.456 189.88 242.456L200.184 247.898C200.603 250.596 196.021 256.086 196.021 256.086C195.635 257.934 195.05 259.736 194.276 261.458C194.216 261.633 194.146 261.803 194.067 261.97H194.23C194.537 261.824 194.883 261.778 195.217 261.841C195.552 261.904 195.857 262.071 196.09 262.319L193.439 269.413Z" fill="#FB9988"/>
<path d="M194.299 261.877H194.113L194.276 261.482C194.276 261.296 194.439 261.086 194.555 260.83L194.904 259.923C195.423 258.699 195.798 257.419 196.02 256.109C196.02 256.109 200.672 250.62 200.207 247.922V245.084C200.463 244.758 200.742 244.386 201.068 244.014L191.764 239.106L191.159 240.246L189.973 242.572C188.443 246.559 187.162 250.637 186.135 254.783C186.074 255.215 186.074 255.654 186.135 256.086C186.135 256.527 186.298 257.411 186.414 258.411C186.624 260.528 186.903 263.412 187.089 265.831C187.205 266.948 187.275 267.925 187.345 268.692C187.414 269.46 187.484 270.274 187.484 270.274H187.601C188.322 270.39 192.066 270.925 193.625 269.367L196.276 262.203C196.03 261.936 195.702 261.759 195.344 261.7C194.986 261.641 194.618 261.703 194.299 261.877ZM190.368 266.808C190.368 266.32 190.368 265.808 190.368 265.32C190.403 264.708 190.403 264.094 190.368 263.482C190.276 261.894 189.955 260.327 189.415 258.83C190.32 256.519 190.975 254.117 191.369 251.666C191.435 252.961 191.694 254.239 192.136 255.458C192.531 256.504 191.392 257.621 191.089 258.714C190.729 259.809 190.729 260.991 191.089 262.086C191.129 262.202 191.184 262.311 191.252 262.412C191.367 262.642 191.525 262.847 191.717 263.017C192.046 263.351 192.467 263.578 192.927 263.668C192.363 264.732 192 265.891 191.857 267.087C191.275 267.064 190.88 266.855 190.368 266.808Z" fill="#FDBD8E"/>
<path d="M191.718 239.083L191.113 240.223L189.927 242.549C188.398 246.536 187.116 250.614 186.089 254.76C189.208 250.241 191.814 245.388 193.858 240.292L191.718 239.083Z" fill="#FFDABA"/>
<path d="M187.903 238.432L193.927 240.92L204.417 245.247L220.699 215.475L233.143 192.867L222.653 144.929L221.932 115.297C221.932 115.297 206.139 123.833 204.766 134.253C203.394 144.673 201.068 202.705 199.882 207.008C198.696 211.311 187.903 238.432 187.903 238.432Z" fill="#FF9300"/>
<path d="M193.927 240.92L204.417 245.247L220.699 215.475L213.046 196.309V162.583C211.938 154.222 211.325 145.803 211.209 137.37C210.069 144.092 208.185 157.815 210.558 164.886L209.72 199.333C209.72 199.333 195.765 230.082 193.927 240.92Z" fill="#CF691F"/>
<path d="M173.645 457.93H190.043C193.579 457.93 200.882 451.674 200.882 451.674C201.976 453.865 203.327 455.918 204.906 457.791C206.79 459.675 207.232 437.741 207.232 437.741L196.719 439.3L176.297 451.418L172.413 453.744C172.14 453.909 171.905 454.128 171.721 454.388C171.537 454.649 171.408 454.944 171.343 455.255C171.292 455.587 171.314 455.925 171.407 456.247C171.5 456.57 171.661 456.868 171.88 457.122C172.098 457.376 172.369 457.58 172.674 457.719C172.979 457.859 173.31 457.931 173.645 457.93Z" fill="#6C3509"/>
<path d="M176.389 451.418C198.765 458.768 207.324 437.741 207.324 437.741H196.927L176.389 451.418Z" fill="#FDBD8E"/>
<path d="M280.917 453.999L295.827 447.184C299.06 445.719 303.107 436.997 303.107 436.997C305.006 438.542 307.083 439.853 309.294 440.904C311.806 441.835 303.177 421.646 303.177 421.646L294.268 427.437L280.731 446.929L278.149 450.673C277.925 451.083 277.83 451.55 277.875 452.015C277.92 452.479 278.103 452.919 278.402 453.278C278.7 453.637 279.1 453.897 279.549 454.026C279.997 454.155 280.474 454.145 280.917 453.999Z" fill="#6C3509"/>
<path d="M280.731 446.929C304.13 444.324 303.177 421.646 303.177 421.646L293.733 425.949L280.731 446.929Z" fill="#FDBD8E"/>
<path d="M214.117 195.379L212.372 299.79L290.407 427.53L305.921 422.46C305.921 422.46 271.311 332.655 268.497 329.794C265.683 326.934 251.913 306.163 251.913 306.163L251.587 207.427L214.117 195.379Z" fill="#1F2123"/>
<path d="M226.56 195.379C226.56 195.379 199.16 291.068 198.649 297.72C198.137 304.372 191.299 437.718 191.299 437.718L209.65 439.276C209.65 439.276 230.421 324.142 229.816 305.256C229.677 300.302 261.356 266.994 263.031 240.711C264.752 213.94 257.518 197.309 257.518 197.309L226.56 195.379Z" fill="#2E3032"/>
<path d="M273.87 123.717C273.381 126.042 272.404 129.671 271.055 136.602C270.032 141.952 268.729 147.999 267.194 154.163C262.729 172.91 257.356 192.727 257.472 197.332C257.472 197.332 233.515 211.73 214.117 195.448C214.117 195.448 214.117 170.677 213.047 166.188C211.977 161.699 206.836 127.717 218.652 117.809C222.429 114.426 226.766 111.727 231.468 109.831C232.189 109.575 232.817 109.389 233.375 109.226C234.307 108.967 235.269 108.834 236.236 108.831H252.332C254.606 109.371 256.849 110.03 259.054 110.808C264.287 112.994 269.151 115.975 273.474 119.646C273.651 119.847 273.807 120.065 273.94 120.297C274.335 121.088 274.265 121.902 273.87 123.717Z" fill="#FF9300"/>
<path d="M217.256 158.42H218.861L223.234 158.164C227.826 157.733 232.458 158.031 236.957 159.047L240.841 160.141C242.107 160.505 243.397 160.777 244.702 160.955C246.912 161.283 249.152 161.353 251.378 161.164C252.253 161.107 253.119 160.951 253.96 160.699C254.604 160.49 255.209 160.176 255.751 159.769C256.067 159.512 256.349 159.215 256.588 158.885L256.797 158.513L256.495 158.792C256.189 159.023 255.853 159.211 255.495 159.35C254.169 159.761 252.762 159.833 251.401 159.559C249.328 159.284 247.276 158.864 245.261 158.303C244.121 158.001 242.935 157.629 241.725 157.21C240.516 156.791 239.19 156.326 237.771 155.954C235.063 155.251 232.251 155.038 229.468 155.326C227.27 155.541 225.097 155.961 222.978 156.582C221.164 157.07 219.745 157.582 218.768 157.931L217.256 158.42Z" fill="#CF691F"/>
<path d="M209.325 83.5941C209.325 83.222 209.511 82.687 209.697 82.0358C209.91 81.2382 210.19 80.4601 210.534 79.7098C210.947 78.7967 211.505 77.9563 212.186 77.2211C212.856 76.4922 213.641 75.8792 214.512 75.4068C215.255 75.0341 216.034 74.738 216.837 74.523L217.628 74.43L218.093 74.0113L217.931 74.3602H218.419H219.001L217.652 75.2673C217.465 75.686 217.233 76.1977 216.977 76.8257C216.086 78.7963 215.43 80.8652 215.023 82.9894C214.728 85.1468 214.627 87.3265 214.721 89.502C214.721 90.3626 214.721 91.0837 214.721 91.5721C214.721 92.0605 214.721 92.3397 214.721 92.3397L214.372 91.4093C214.186 90.9441 213.907 90.2928 213.628 89.4322C213.293 88.4318 213.044 87.4047 212.883 86.362C212.685 85.0514 212.685 83.7185 212.883 82.4079C213.174 81.08 213.676 79.8076 214.372 78.6399C214.868 77.7592 215.444 76.9261 216.093 76.1511C215.149 76.8366 214.276 77.6159 213.488 78.4771C212.393 79.7113 211.412 81.0425 210.557 82.4544L209.674 83.7802L209.348 84.2687L209.325 83.5941Z" fill="#85441D"/>
<path d="M260.193 94.5958C261.296 97.1851 262.76 99.6049 264.542 101.783C268.403 106.667 273.846 110.831 280.033 111.226C276.904 110.066 274.091 108.185 271.822 105.737L272.985 106.458C277.331 108.917 282.413 109.742 287.313 108.784C285.401 106.616 284.03 104.025 283.313 101.225C282.794 99.2409 282.505 97.2039 282.452 95.154C282.508 90.2305 282.983 85.3206 283.871 80.4774C285.091 72.5133 285.628 64.4595 285.476 56.404C285.51 49.7635 282.938 43.3746 278.312 38.6105C277.164 37.573 275.809 36.7904 274.336 36.3144C272.864 35.8384 271.307 35.6798 269.769 35.849C268.231 36.0182 266.746 36.5114 265.412 37.2961C264.078 38.0808 262.925 39.1392 262.03 40.4015C261.677 40.9304 261.358 41.4821 261.077 42.0529C260.681 42.9135 260.449 43.588 261.077 44.3789C261.666 45.1462 262.32 45.8621 263.03 46.5187C264.818 48.4758 266.027 50.8919 266.519 53.4965C266.216 53.7334 265.929 53.9898 265.659 54.2641C263.952 56.0545 262.616 58.1652 261.728 60.4743C259.296 66.6014 257.996 73.1187 257.89 79.7098C257.612 84.7781 258.396 89.8485 260.193 94.5958Z" fill="#85441D"/>
<path d="M262.007 40.355C262.278 41.3933 262.726 42.377 263.333 43.2624C264.815 43.3056 266.255 43.7647 267.489 44.5872C268.723 45.4098 269.7 46.5627 270.31 47.9143C271.479 50.6355 272.019 53.5848 271.892 56.5435C271.916 60.9584 271.589 65.3683 270.915 69.7316C269.901 74.3211 269.294 78.991 269.101 83.6872C269.007 86.0234 269.418 88.3524 270.305 90.5157C271.192 92.679 272.535 94.6259 274.241 96.224C274.09 93.4574 274.559 90.692 275.614 88.1297C275.848 90.7578 276.665 93.3007 278.004 95.5738C279.344 97.847 281.173 99.7932 283.359 101.271C282.84 99.2874 282.551 97.2504 282.498 95.2006C282.461 91.6077 282.749 88.0189 283.359 84.478L283.917 80.5239C285.137 72.5598 285.674 64.506 285.522 56.4505C285.557 49.81 282.984 43.4211 278.358 38.6571C277.084 37.5211 275.565 36.6933 273.919 36.2376C272.274 35.7818 270.546 35.7104 268.868 36.0287C267.937 36.2086 267.036 36.5219 266.194 36.9591C264.545 37.7377 263.109 38.9026 262.007 40.355Z" fill="#965326"/>
<path d="M266.148 36.8661C269.205 38.5686 271.751 41.0582 273.521 44.0765C274.158 45.5245 274.603 47.0492 274.847 48.6121C275.31 50.7026 275.613 52.8253 275.754 54.9619C275.894 58.7066 275.056 62.4281 274.824 66.1496C274.539 70.5765 275.084 75.0175 276.429 79.2446C276.946 77.2425 277.728 75.3182 278.755 73.5228C279.2 77.5232 280.818 81.3025 283.406 84.385L283.965 80.4309C285.185 72.4668 285.722 64.413 285.57 56.3574C285.604 49.717 283.032 43.3281 278.406 38.564C277.131 37.4281 275.612 36.6003 273.967 36.1445C272.321 35.6888 270.593 35.6174 268.916 35.9357C267.952 36.1068 267.019 36.4203 266.148 36.8661Z" fill="#B5693C"/>
<path d="M255.285 45.2395C255.285 46.5009 255.66 47.734 256.361 48.7825C257.062 49.8311 258.059 50.6479 259.225 51.1296C260.391 51.6113 261.673 51.7361 262.91 51.4883C264.147 51.2405 265.283 50.6312 266.173 49.7376C267.063 48.844 267.668 47.7062 267.912 46.4685C268.155 45.2307 268.025 43.9485 267.54 42.7844C267.054 41.6203 266.233 40.6266 265.182 39.9291C264.131 39.2316 262.896 38.8618 261.635 38.8664C260.799 38.8664 259.972 39.0314 259.2 39.352C258.428 39.6725 257.727 40.1423 257.137 40.7344C256.547 41.3265 256.08 42.0293 255.762 42.8023C255.444 43.5754 255.282 44.4036 255.285 45.2395Z" fill="#FFF0E7"/>
<path d="M231.468 109.831L229.77 128.927L238.19 124.647L242.563 119.227C242.563 119.227 242.563 112.25 242.563 108.854H236.236C235.27 108.87 234.309 109.003 233.375 109.249C232.817 109.319 232.189 109.575 231.468 109.831Z" fill="#FFF0E7"/>
<path d="M238.189 124.647L252.331 108.854C252.331 106.528 252.121 105.621 251.912 99.8292C251.68 93.3631 251.447 87.3156 251.447 87.3156L233.235 94.526C235.163 99.1924 236.265 104.159 236.491 109.203C236.714 114.383 237.281 119.542 238.189 124.647Z" fill="#FDBD8E"/>
<path d="M233.235 94.526C235.163 99.1924 236.265 104.159 236.491 109.203C237.049 109.459 237.631 109.668 238.143 109.854C240.259 110.598 247.051 104.551 251.912 99.8292C251.68 93.3631 251.447 87.3156 251.447 87.3156L233.235 94.526Z" fill="#FB9988"/>
<path d="M214.116 72.8716C214.488 74.5695 214.953 76.3372 215.535 78.1747C215.535 78.1747 214.721 87.3156 215.674 89.3392C216.628 91.3628 222.792 104.132 229.235 103.295C234.607 102.644 247.842 94.7586 252.331 90.0603C253.064 89.442 253.618 88.6389 253.936 87.7343C254.564 84.1059 256.704 68.1499 256.913 66.8009C257.471 63.1957 258.983 35.7729 225.839 43.402C222.909 44.0624 220.226 45.5373 218.098 47.6567C215.971 49.7761 214.485 52.4536 213.814 55.3805C212.62 61.1615 212.723 67.1353 214.116 72.8716Z" fill="#FDBD8E"/>
<path d="M208.906 55.8225C208.966 57.2812 209.24 58.7232 209.72 60.1022C210.527 62.9505 212.143 65.5037 214.372 67.4521C214.091 63.7477 214.255 60.0229 214.86 56.3574C222.768 64.9634 239.306 67.9871 239.98 67.9871C236.84 67.0335 235.91 60.7535 235.91 60.7535C239.608 69.7781 256.239 71.4993 256.239 71.4993C260.193 68.2895 262.937 74.3602 262.937 74.3602C264.169 72.1586 265.279 69.8913 266.263 67.5684C266.496 67.0335 266.705 66.4985 266.915 65.9868C267.43 64.6015 267.804 63.1677 268.031 61.7071C270.241 48.4958 260.355 35.5171 247.609 31.8188C235.561 28.3299 221.326 31.5164 214.604 38.1686C213.432 39.3083 212.471 40.6471 211.767 42.1227C211.767 42.332 211.581 42.5646 211.488 42.774V42.96C211.016 44.2072 210.795 45.535 210.836 46.8676C210.86 47.6497 210.954 48.428 211.115 49.1936C209.786 51.1591 209.021 53.4522 208.906 55.8225Z" fill="#85441D"/>
<path d="M211.395 42.774C212.131 43.1685 212.912 43.473 213.721 43.6811C215.326 44.0997 217.001 44.1463 218.605 44.5649C220.547 45.0794 222.289 46.1653 223.606 47.6817C225.932 50.3333 226.979 54.2873 230.119 55.8922C232.427 56.7659 234.975 56.7659 237.283 55.8922C239.588 55.0633 242.001 54.5698 244.447 54.4269C246.343 54.6644 248.167 55.3014 249.799 56.2957C251.43 57.29 252.833 58.6191 253.913 60.1952C254.561 61.1694 255.344 62.0465 256.239 62.8003C257.646 63.6145 259.276 63.9569 260.891 63.7772C263.328 63.6208 265.705 62.9552 267.869 61.8234C268.553 57.5972 268.079 53.2646 266.496 49.2866C264.822 45.1531 262.241 41.4482 258.944 38.4451C255.647 35.442 251.718 33.2173 247.447 31.9351C239.696 29.7464 231.463 29.9655 223.839 32.5631C220.378 33.7236 217.206 35.6111 214.535 38.0988C213.363 39.2386 212.402 40.5774 211.697 42.0529C211.558 42.332 211.488 42.5646 211.395 42.774Z" fill="#965326"/>
<path d="M223.839 32.5631C227.724 35.7264 229.724 41.3086 234.422 43.0531C237.255 43.786 240.221 43.8338 243.075 43.1926C245.958 42.5742 248.968 43.0996 251.471 44.658C252.658 45.5884 253.472 46.9839 254.611 47.9608C255.876 48.9616 257.353 49.66 258.93 50.0027C260.506 50.3453 262.14 50.3232 263.706 49.9379C264.692 49.7514 265.658 49.471 266.59 49.1005C264.916 44.9671 262.335 41.2621 259.038 38.259C255.741 35.2559 251.812 33.0312 247.541 31.749C239.742 29.601 231.473 29.885 223.839 32.5631Z" fill="#B5693C"/>
<path d="M215.536 78.1747C215.536 78.1747 214.721 87.3156 215.675 89.3392C216.629 91.3628 222.792 104.132 229.235 103.295C234.608 102.644 247.843 94.7586 252.332 90.0602C246.726 93.9678 231.794 103.876 227.421 102.364C222.002 100.48 215.791 88.4088 215.977 87.2691C216.164 86.1294 216.443 78.291 216.443 78.291C216.443 78.291 215.349 75.8255 214.117 72.8251C214.489 74.5695 214.954 76.3372 215.536 78.1747Z" fill="#FFDABA"/>
<path d="M252.448 87.3156C254.171 87.1503 255.843 86.6337 257.359 85.7976C258.875 84.9616 260.204 83.8238 261.263 82.4544C261.582 82.0424 261.87 81.607 262.124 81.1519C263.333 78.9888 263.659 71.5225 260.612 69.7781C260.209 69.5868 259.771 69.4796 259.326 69.4632C258.88 69.4468 258.436 69.5214 258.02 69.6825C257.604 69.8436 257.226 70.0878 256.907 70.4001C256.589 70.7125 256.338 71.0865 256.169 71.4993C255.98 71.7788 255.817 72.0746 255.681 72.3831L252.448 87.3156Z" fill="#FFDABA"/>
<path d="M252.448 87.3156C254.171 87.1503 255.843 86.6337 257.359 85.7976C258.875 84.9615 260.204 83.8238 261.263 82.4544L261.635 81.8497C262.821 79.6866 263.147 72.2203 260.1 70.4991C259.444 70.1209 258.666 70.0137 257.931 70.2005C257.197 70.3873 256.565 70.8533 256.169 71.4993C255.98 71.7788 255.817 72.0746 255.681 72.3831L252.448 87.3156Z" fill="#FDBD8E"/>
<path d="M261.566 75.7092C261.707 76.3139 261.658 76.9474 261.426 77.5235C260.152 80.1056 258.156 82.2628 255.681 83.7337C256.38 82.5489 256.682 81.1714 256.542 79.8029C256.453 79.3423 256.399 78.8759 256.379 78.4073C256.356 76.5233 260.659 72.104 261.566 75.7092Z" fill="#FB9988"/>
<path d="M254.495 84.4315L254.89 84.1989C255.339 83.9056 255.739 83.5447 256.077 83.129C256.547 82.5521 256.881 81.8762 257.053 81.1519C257.238 80.2584 257.132 79.3294 256.751 78.5003C256.698 78.387 256.636 78.2781 256.565 78.1747V78.0352L256.751 77.756C256.964 77.3893 257.205 77.0394 257.472 76.7094C257.71 76.3993 257.966 76.1041 258.24 75.8255C258.476 75.5803 258.724 75.3474 258.984 75.1277C259.213 74.9452 259.486 74.825 259.775 74.7789C259.999 74.7524 260.225 74.7928 260.426 74.8951C260.549 74.9494 260.654 75.0383 260.728 75.151V75.2906C260.733 75.2442 260.733 75.1974 260.728 75.151C260.718 75.0792 260.692 75.0107 260.651 74.9503C260.611 74.89 260.558 74.8393 260.496 74.8021C260.271 74.6458 260.002 74.5644 259.728 74.5695C259.367 74.5833 259.015 74.6872 258.705 74.8719C258.37 75.0515 258.058 75.2701 257.775 75.5232C257.442 75.7932 257.131 76.0887 256.844 76.407C256.528 76.7308 256.24 77.0809 255.984 77.4537L255.797 77.7328V77.8956V78.1049V78.2445C255.793 78.2987 255.793 78.3531 255.797 78.4073V78.6166L255.96 78.8958C256.29 79.6238 256.419 80.427 256.332 81.2217C256.251 81.8854 256.038 82.526 255.704 83.1057C255.458 83.5337 255.152 83.9252 254.797 84.2687L254.472 84.5478L254.495 84.4315Z" fill="#FD7D6F"/>
<path d="M238.19 124.647L248.936 133.044L259.054 110.831C256.849 110.054 254.606 109.394 252.332 108.854L238.19 124.647Z" fill="#FFF0E7"/>
<path d="M248.377 78.6632C248.377 78.291 248.564 77.756 248.75 77.1048C248.96 76.3094 249.232 75.5317 249.564 74.7788C250.394 72.9039 251.849 71.3749 253.681 70.4526C254.424 70.0799 255.203 69.7837 256.007 69.5687L256.774 69.3594L257.239 68.964L257.076 69.3129L257.565 69.1966H258.146L256.774 70.0805C256.611 70.4991 256.379 71.0108 256.123 71.6388C255.232 73.6095 254.576 75.6783 254.169 77.8026C253.874 79.96 253.773 82.1396 253.867 84.3152C253.867 85.199 253.867 85.8968 253.867 86.3853C253.867 86.8737 253.867 87.1761 253.867 87.1761L253.564 86.455C253.378 86.0131 253.099 85.3386 252.82 84.5013C252.491 83.4993 252.242 82.4726 252.076 81.431C251.877 80.1126 251.877 78.772 252.076 77.4537C252.311 76.1416 252.759 74.8768 253.401 73.7089C253.886 72.8211 254.463 71.9869 255.123 71.2202C254.183 71.8679 253.31 72.6081 252.518 73.4298C251.421 74.6716 250.44 76.0107 249.587 77.4304L248.703 78.7329L248.377 79.2214V78.6632Z" fill="#85441D"/>
<path d="M211.116 66.3124C211.116 66.3124 215.349 60.6604 217.699 62.8933C220.048 65.1262 219.001 65.3821 219.001 65.3821L211.116 66.3124Z" fill="#965326"/>
<path d="M244.609 67.173C244.609 67.173 236.817 58.1949 233.607 61.3814C231.747 63.2422 233.049 64.5215 233.049 64.5215L244.609 67.173Z" fill="#965326"/>
<path d="M234.142 68.1034C234.709 69.084 235.596 69.8396 236.654 70.2433C236.848 70.0003 237.091 69.8019 237.368 69.6614C237.645 69.5209 237.949 69.4417 238.259 69.4292C239.771 69.4292 241.004 71.4062 241.004 73.8485C241.004 76.2907 239.771 78.2677 238.259 78.2677C236.747 78.2677 235.514 76.2907 235.514 73.8485C235.511 73.1378 235.621 72.4312 235.84 71.7551C234.98 70.6977 234.396 69.4427 234.142 68.1034Z" fill="#161818"/>
<path d="M220.978 74.2671H220.652H219.815C219.468 74.2115 219.115 74.2115 218.768 74.2671C218.396 74.2671 217.954 74.4532 217.419 74.523L216.093 74.7091C215.738 74.7672 215.388 74.8528 215.046 74.9649L214.279 75.2673H213.976C213.969 75.1666 213.969 75.0656 213.976 74.9649C214.107 74.7021 214.262 74.4527 214.442 74.2206C214.729 73.8446 215.094 73.5352 215.512 73.3135C215.994 73.071 216.513 72.9062 217.047 72.825C217.579 72.7554 218.119 72.7554 218.652 72.825C219.128 72.887 219.583 73.0625 219.977 73.3368C220.219 73.5018 220.437 73.6972 220.629 73.9182C220.762 74.0167 220.879 74.1342 220.978 74.2671Z" fill="#161818"/>
<path d="M243.632 71.383C243.011 72.3654 242.099 73.1304 241.024 73.5721C239.949 74.0138 238.763 74.1104 237.631 73.8485C238.299 72.8861 239.215 72.1225 240.282 71.6388C241.355 71.251 242.513 71.1626 243.632 71.383Z" fill="#FFF0E7"/>
<path d="M227.7 84.0361C228.344 83.7126 229.05 83.5303 229.77 83.5011C229.027 85.1447 227.677 86.4367 226.002 87.1063C225.872 87.137 225.736 87.137 225.606 87.1063C225.438 87.0838 225.278 87.0198 225.141 86.9202C224.228 86.3828 223.436 85.6621 222.815 84.8036C222.671 84.6405 222.561 84.4509 222.49 84.2454C222.327 83.5476 222.815 83.7104 223.234 83.8733C223.713 84.057 224.213 84.182 224.723 84.2454C225.717 84.4159 226.739 84.3441 227.7 84.0361Z" fill="#FB9988"/>
<path d="M225.863 86.7109C225.444 86.3387 224.979 86.0131 224.537 85.641C223.997 85.1982 223.506 84.6992 223.071 84.1524C225.397 82.594 225.397 80.2215 225.188 77.5467C225.144 76.3301 224.809 75.1418 224.211 74.0811C223.908 73.5223 223.533 73.006 223.095 72.546C222.879 72.3113 222.646 72.0936 222.397 71.8947C222.165 71.697 221.896 71.5468 221.606 71.4528C221.746 71.6156 221.839 71.8017 221.978 71.9645C222.322 72.371 222.64 72.7983 222.932 73.2437C223.218 73.7081 223.46 74.1988 223.653 74.7091C224.072 75.7125 224.301 76.7852 224.327 77.8723C224.379 78.9433 224.205 80.0133 223.816 81.0124C223.363 82.2004 222.549 83.217 221.49 83.9198C221.49 83.9198 223.048 85.734 223.188 85.8736C223.583 86.2523 224.011 86.5948 224.467 86.897C224.912 87.2342 225.445 87.4361 226.002 87.4785C226.176 87.4907 226.349 87.4413 226.491 87.3389C226.387 87.2845 226.293 87.2138 226.211 87.1296V87.0133L225.863 86.7109Z" fill="#FD7D6F"/>
<path d="M232.678 93.7585C231.829 94.1807 230.899 94.4139 229.951 94.442C229.003 94.4701 228.061 94.2925 227.188 93.9213C227.447 94.3512 227.817 94.7034 228.259 94.9408C228.701 95.1782 229.199 95.292 229.7 95.2703C230.846 95.1522 231.907 94.6135 232.678 93.7585Z" fill="#FD7D6F"/>
<path d="M239.051 88.967C236.875 90.5234 234.352 91.5254 231.702 91.8861C229.051 92.2469 226.352 91.9554 223.839 91.0371C226.587 91.5139 229.396 91.5139 232.143 91.0371C234.557 90.7961 236.902 90.0933 239.051 88.967Z" fill="#FD7D6F"/>
<path d="M219.187 84.9897C218.838 85.9666 216.861 86.0596 214.535 85.2456C212.209 84.4315 210.837 82.9196 211.186 81.9892C211.535 81.0589 213.651 80.896 215.838 81.7334C218.024 82.5707 219.559 84.0128 219.187 84.9897Z" fill="#FB9988"/>
<path d="M247.051 80.4774C247.446 81.9427 245.027 83.8267 241.701 84.6873C238.375 85.5479 235.328 85.0595 234.956 83.6174C234.584 82.1753 236.98 80.2681 240.329 79.4075C243.678 78.5469 246.679 79.0818 247.051 80.4774Z" fill="#FB9988"/>
<path d="M208.185 74.0345C208.241 76.2035 209.129 78.2678 210.666 79.7993C212.203 81.3308 214.27 82.2119 216.439 82.2598C218.608 82.3076 220.713 81.5186 222.316 80.0564C223.919 78.5942 224.897 76.5711 225.048 74.4067C225.651 74.0769 226.327 73.904 227.014 73.904C227.701 73.904 228.376 74.0769 228.979 74.4067C229.344 76.6201 230.497 78.6271 232.225 80.058C233.952 81.4889 236.139 82.2472 238.382 82.1934C240.625 82.1396 242.772 81.2773 244.43 79.7652C246.087 78.2531 247.142 76.1932 247.4 73.9648C247.401 73.3155 247.331 72.6682 247.191 72.0342L259.17 70.0804L258.937 68.6849L246.796 70.6619C246 68.7929 244.615 67.2357 242.851 66.228C241.087 65.2203 239.042 64.8176 237.028 65.0812C235.014 65.3448 233.141 66.2604 231.696 67.688C230.251 69.1157 229.313 70.9771 229.026 72.9879C227.716 72.4801 226.264 72.4801 224.955 72.9879C224.682 70.8509 223.599 68.9001 221.931 67.537C220.262 66.1738 218.135 65.5021 215.986 65.6601C213.838 65.818 211.831 66.7936 210.38 68.386C208.929 69.9785 208.143 72.0666 208.185 74.2206V74.0345ZM230.375 74.0345C230.375 72.4888 230.833 70.9779 231.692 69.6927C232.55 68.4075 233.771 67.4058 235.199 66.8143C236.627 66.2228 238.198 66.068 239.714 66.3696C241.23 66.6711 242.623 67.4154 243.716 68.5084C244.809 69.6014 245.553 70.9939 245.855 72.5099C246.156 74.0259 246.002 75.5972 245.41 77.0253C244.819 78.4533 243.817 79.6738 242.532 80.5326C241.246 81.3913 239.735 81.8497 238.19 81.8497C237.158 81.8497 236.136 81.6453 235.183 81.2482C234.23 80.8511 233.365 80.2692 232.639 79.5361C231.912 78.803 231.338 77.9332 230.949 76.9769C230.561 76.0207 230.365 74.9969 230.375 73.9648V74.0345ZM209.604 74.0345C209.604 72.6545 210.013 71.3054 210.78 70.1579C211.547 69.0104 212.636 68.116 213.912 67.5879C215.187 67.0597 216.59 66.9216 217.943 67.1908C219.297 67.46 220.54 68.1246 221.516 69.1005C222.492 70.0763 223.156 71.3197 223.426 72.6732C223.695 74.0268 223.557 75.4298 223.028 76.7048C222.5 77.9799 221.606 79.0696 220.458 79.8364C219.311 80.6031 217.962 81.0123 216.582 81.0123C214.751 80.9818 213.006 80.2332 211.723 78.9279C210.439 77.6226 209.72 75.8652 209.72 74.0345H209.604Z" fill="#FFF0E7"/>
<path d="M220.094 194.239L215.256 194.844L215.651 198.077L220.489 197.472C221.685 197.345 222.883 197.686 223.832 198.423C224.782 199.16 225.409 200.237 225.583 201.426L226.56 209.334C226.687 210.53 226.346 211.728 225.609 212.677C224.872 213.627 223.795 214.254 222.606 214.428L217.768 215.033L218.163 218.266L223.024 217.661C225.078 217.4 226.944 216.335 228.212 214.7C229.481 213.064 230.05 210.993 229.793 208.939L228.816 201.124C228.701 200.097 228.383 199.103 227.881 198.199C227.379 197.296 226.703 196.501 225.892 195.861C225.081 195.221 224.15 194.748 223.155 194.469C222.16 194.191 221.119 194.113 220.094 194.239Z" fill="#005584"/>
<path d="M224.258 197.007C223.925 197.251 223.627 197.541 223.374 197.867C223.034 198.278 222.781 198.752 222.63 199.263C220.558 200.15 218.605 201.291 216.815 202.659C216.233 203.636 218.652 208.264 219.141 209.195C220.74 211.551 222.693 213.646 224.932 215.405C226.77 216.382 239.469 210.753 239.469 210.753L235.911 197.077C235.911 197.077 225.537 196.03 224.258 197.007Z" fill="#FDBD8E"/>
<path d="M223.374 197.867C223.035 198.278 222.781 198.752 222.63 199.263C223.543 199.368 224.44 199.579 225.305 199.891C225.908 200.337 226.545 200.734 227.212 201.077C227.212 201.077 230.189 199.775 230.119 199.519C230.05 199.263 228.514 198.751 228.514 198.751L226.328 199.03C225.387 198.54 224.397 198.15 223.374 197.867Z" fill="#FB9988"/>
<path d="M226.699 196.588C227.321 197.276 227.824 198.062 228.188 198.914C228.421 199.419 228.593 199.95 228.7 200.496C227.955 200.868 227.211 201.193 227.211 201.193C226.545 200.85 225.907 200.453 225.304 200.007C225.304 200.007 225.304 200.007 225.025 199.868C224.615 199.128 224.002 198.523 223.257 198.123C222.412 197.663 221.445 197.476 220.489 197.588L215.256 198.286L214.744 194.867L220.094 194.355C221.292 194.192 222.513 194.309 223.659 194.697C224.805 195.084 225.845 195.731 226.699 196.588Z" fill="#005584"/>
<path d="M194.223 195.792L214.69 192.539L218.684 217.67C218.781 218.279 218.632 218.902 218.269 219.401C217.907 219.9 217.361 220.235 216.752 220.332L200.925 222.847C200.316 222.944 199.693 222.795 199.194 222.433C198.695 222.07 198.36 221.524 198.263 220.915L194.269 195.785L194.223 195.792Z" fill="#006AAB"/>
<path d="M302.013 200.891C299.339 205.845 239.213 214.265 239.213 214.265L238.446 210.939L235.422 198.03L234.282 193.239L274.521 183.935C274.521 183.935 268.264 157.419 266.543 144.394C265.509 135.212 265.509 125.944 266.543 116.762C275.009 118.367 282.08 127.764 287.616 139.742C298.734 163.513 303.781 197.705 302.013 200.891Z" fill="#FF9300"/>
<path d="M285.058 184.051C284.538 184.938 283.793 185.671 282.898 186.178C282.004 186.684 280.992 186.946 279.964 186.935C279.964 186.935 283.267 195.03 281.987 194.774C280.708 194.518 276.987 188.494 276.987 188.494L235.515 198.03L234.375 193.239L274.614 183.935C274.614 183.935 265.543 143.324 265.938 141.603C266.334 139.137 277.894 182.284 277.894 182.284C277.894 182.284 286.849 181.004 285.058 184.051Z" fill="#CF691F"/>
<path d="M302.014 200.891C299.339 205.845 239.213 214.265 239.213 214.265L238.446 210.939C253.913 208.613 294.478 202.124 296.943 199.868C299.409 197.612 293.012 162.234 287.639 139.649C298.734 163.513 303.781 197.705 302.014 200.891Z" fill="#FFB800"/>
<path d="M84.8868 150.255C80.2349 150.255 75.7226 146.255 73.4199 144.534C61.9531 136.509 58.5339 133.625 56.208 131.904V156.001C56.208 157.518 56.8108 158.973 57.8839 160.046C58.9569 161.12 60.4123 161.722 61.9298 161.722H107.821C108.574 161.725 109.32 161.58 110.017 161.293C110.714 161.007 111.348 160.586 111.882 160.055C112.415 159.523 112.839 158.891 113.128 158.196C113.417 157.5 113.566 156.754 113.566 156.001V131.904C111.24 133.625 107.821 136.556 96.3537 144.534C94.0742 146.255 89.4922 150.255 84.8868 150.255Z" fill="#909AA3"/>
<path d="M107.821 115.855H61.9531C60.4294 115.855 58.9681 116.46 57.8907 117.538C56.8133 118.615 56.208 120.076 56.208 121.6V124.461C60.8599 127.926 60.2319 127.926 76.8623 139.952C78.5835 141.091 82.0259 144.603 84.8868 144.603C87.7477 144.603 91.2133 141.161 92.9345 140.58C109.542 128.531 108.983 128.531 113.566 125.112V121.6C113.566 120.076 112.96 118.615 111.883 117.538C110.805 116.46 109.344 115.855 107.821 115.855Z" fill="#909AA3"/>
<path d="M133.569 129.997C131.243 131.718 126.708 135.718 122.102 135.718C121.233 135.706 120.371 135.565 119.544 135.3V145.231C119.534 145.888 119.464 146.542 119.334 147.185H144.92C145.673 147.188 146.42 147.043 147.117 146.756C147.813 146.47 148.447 146.049 148.981 145.518C149.515 144.986 149.938 144.354 150.227 143.658C150.516 142.963 150.665 142.217 150.665 141.463V117.367C148.478 119.088 145.036 121.972 133.569 129.997Z" fill="#909AA3"/>
<path d="M145.036 101.318H99.1684C97.6567 101.318 96.2059 101.913 95.1305 102.976C94.0551 104.038 93.4417 105.481 93.4233 106.993V108.04H107.216C108.831 108.037 110.43 108.352 111.923 108.968C113.416 109.584 114.772 110.488 115.915 111.628C117.058 112.769 117.965 114.124 118.583 115.616C119.202 117.107 119.52 118.706 119.52 120.321V129.182C120.304 129.625 121.18 129.88 122.079 129.927C124.963 129.927 128.405 126.484 130.127 125.903C146.734 113.855 146.176 113.855 150.758 110.435V106.993C150.739 105.486 150.129 104.046 149.059 102.984C147.988 101.922 146.543 101.324 145.036 101.318Z" fill="#909AA3"/>
<path d="M171.366 116.622C169.04 118.344 164.388 122.344 159.899 122.344C159.03 122.332 158.168 122.191 157.341 121.926V131.857C157.331 132.514 157.261 133.168 157.131 133.811H182.717C183.47 133.814 184.217 133.668 184.913 133.382C185.61 133.096 186.244 132.675 186.778 132.143C187.311 131.612 187.735 130.98 188.024 130.284C188.313 129.589 188.462 128.843 188.462 128.089V103.993C186.275 105.714 182.833 108.598 171.366 116.622Z" fill="#909AA3"/>
<path d="M182.833 87.9436H136.965C135.446 87.9498 133.99 88.5578 132.918 89.6345C131.846 90.7113 131.244 92.169 131.244 93.6887V94.7354H145.036C146.649 94.7323 148.247 95.0469 149.738 95.6613C151.229 96.2756 152.585 97.1777 153.727 98.3159C154.87 99.4541 155.777 100.806 156.397 102.295C157.017 103.784 157.338 105.38 157.341 106.993V115.855C158.124 116.298 159 116.552 159.899 116.599C162.783 116.599 166.226 113.157 167.947 112.575C184.554 100.527 183.996 100.527 188.578 97.1078V93.6887C188.578 92.165 187.973 90.7037 186.895 89.6263C185.818 88.5489 184.357 87.9436 182.833 87.9436Z" fill="#909AA3"/>
</svg>
