<svg width="180" height="175" viewBox="0 0 180 175" fill="none" xmlns="http://www.w3.org/2000/svg">
<rect x="180" y="1.52588e-05" width="175" height="180" rx="87.5" transform="rotate(90 180 1.52588e-05)" fill="#D8E7EE"/>
<mask id="mask0" mask-type="alpha" maskUnits="userSpaceOnUse" x="0" y="0" width="180" height="175">
<rect x="180" y="3.05176e-05" width="175" height="180" rx="87.5" transform="rotate(90 180 3.05176e-05)" fill="#D8E7EE"/>
</mask>
<g mask="url(#mask0)">
<path d="M108.601 135.649H76.3702V147.485H108.601V135.649Z" fill="#717EBA"/>
<path d="M105.425 121.763H79.2441C79.2441 121.763 79.9051 138.242 76.7007 143.029H108.314C105.095 138.242 105.425 121.763 105.425 121.763Z" fill="#F4B88E"/>
<g style="mix-blend-mode:multiply">
<path d="M78.8562 134.216C83.058 136.608 87.8124 137.868 92.6509 137.87C97.2652 137.818 101.817 136.802 106.014 134.889C105.522 130.532 105.306 126.148 105.368 121.763H79.2442C79.3622 125.918 79.2326 130.076 78.8562 134.216V134.216Z" fill="#F5DCD6"/>
</g>
<path d="M143.088 154.45L105.08 140.836H79.8764L41.8836 154.45C41.8836 154.45 28.5774 158.749 30.1293 180H154.842C156.653 157.516 143.088 154.45 143.088 154.45Z" fill="#F4B88E"/>
<path d="M143.088 154.45L112.035 143.358L92.5072 156.943L73.4245 143.186L41.8836 154.45C41.8836 154.45 28.5774 158.749 30.1293 180H154.842C156.653 157.516 143.088 154.45 143.088 154.45Z" fill="#42A7D9"/>
<path d="M121.174 89.3484C120.269 94.9228 121.835 99.8666 124.666 100.397C127.497 100.927 130.529 96.8573 131.42 91.2973C132.311 85.7372 130.759 80.7791 127.914 80.2488C125.068 79.7186 122.08 83.7884 121.174 89.3484Z" fill="#F4B88E"/>
<path d="M124.58 87.8151C124.58 87.8151 124.58 87.4998 124.738 86.9839C124.891 86.2978 125.117 85.6301 125.413 84.9921C125.773 84.2469 126.347 83.3871 127.066 83.3441C127.251 83.3327 127.436 83.357 127.612 83.4158L127.885 83.5591C127.956 83.6116 128.023 83.669 128.086 83.731C128.403 84.0788 128.635 84.496 128.761 84.9491C128.932 85.4601 129.043 85.989 129.092 86.5254C129.149 87.0541 129.149 87.5873 129.092 88.116C129.006 88.6749 128.977 89.2481 128.876 89.7353C128.776 90.2225 128.69 90.6954 128.603 91.1683C128.517 91.6412 128.402 92.0138 128.316 92.372C128.23 92.7303 128.129 93.0312 128.072 93.2891C127.928 93.7907 127.856 94.0916 127.856 94.0916C127.856 94.0916 128 93.848 128.23 93.3751C128.345 93.1315 128.503 92.8592 128.632 92.5153C128.761 92.1714 128.948 91.7988 129.106 91.3689C129.264 90.939 129.394 90.4375 129.552 89.9359C129.71 89.4344 129.782 88.8755 129.897 88.3166C129.975 87.6838 129.975 87.0436 129.897 86.4107C129.855 85.7679 129.734 85.1327 129.537 84.5192C129.35 83.9035 129.014 83.3427 128.56 82.8856C128.435 82.7787 128.3 82.6828 128.158 82.599L127.77 82.4413C127.485 82.3912 127.193 82.3912 126.908 82.4413C126.614 82.5027 126.336 82.6217 126.089 82.7915C125.843 82.9612 125.632 83.1783 125.471 83.4301C125.17 83.8685 124.942 84.3523 124.795 84.8631C124.577 85.5951 124.447 86.3503 124.407 87.1129C124.45 87.3504 124.507 87.585 124.58 87.8151V87.8151Z" fill="#F2A57F"/>
<path d="M124.58 87.8151C124.58 87.8151 124.321 87.2132 126.175 87.0699C126.175 87.0699 128.258 87.4568 127.037 90.2225C126.764 90.8292 126.557 91.4633 126.419 92.1141C126.232 93.0455 126.563 94.3066 126.06 95.1234C125.413 96.1838 123.775 95.5819 123.675 94.3639C123.844 93.2038 124.304 92.105 125.011 91.1683C125.378 90.6587 125.537 90.0293 125.457 89.407C125.377 88.7848 125.064 88.2159 124.58 87.8151V87.8151Z" fill="#F2A57F"/>
<path d="M123.675 94.2779C123.675 94.2779 123.675 94.2779 123.531 94.4212C123.416 94.5796 123.324 94.7533 123.258 94.9371C123.214 95.0672 123.185 95.2018 123.172 95.3383C123.15 95.4904 123.15 95.6448 123.172 95.7969C123.172 95.9545 123.172 96.1265 123.172 96.2984C123.172 96.4704 123.272 96.5994 123.33 96.757C123.384 96.9084 123.456 97.0527 123.545 97.1869C123.628 97.2985 123.72 97.4038 123.818 97.5022C123.961 97.6887 124.156 97.8284 124.379 97.9034C124.583 97.9947 124.802 98.0482 125.025 98.061C124.941 97.8296 124.84 97.6045 124.724 97.3875C124.681 97.2986 124.633 97.2124 124.58 97.1296C124.538 97.0219 124.49 96.9166 124.436 96.8143C124.394 96.716 124.346 96.6203 124.292 96.5277C124.235 96.4292 124.191 96.3231 124.163 96.2125C124.07 96.02 123.998 95.8183 123.948 95.6106C123.912 95.5123 123.883 95.4118 123.861 95.3097C123.861 95.195 123.861 95.0947 123.861 94.9944C123.718 94.6218 123.675 94.2779 123.675 94.2779Z" fill="#F2A57F"/>
<path d="M64.2424 89.3484C65.1477 94.9228 63.5814 99.8666 60.7507 100.397C57.9199 100.927 54.9023 96.8573 54.0114 91.2973C53.1205 85.7372 54.6724 80.7791 57.5032 80.2488C60.3339 79.7186 63.3515 83.7884 64.2424 89.3484Z" fill="#F4B88E"/>
<path d="M60.8513 87.8151C60.8513 87.8151 60.8513 87.4998 60.6932 86.9839C60.5341 86.2977 60.3029 85.63 60.0035 84.9921C59.6586 84.2469 59.0838 83.3871 58.3654 83.3441C58.1804 83.3327 57.995 83.357 57.8193 83.4158L57.5463 83.5591C57.4752 83.6116 57.408 83.669 57.3451 83.731C57.0229 84.0777 56.7867 84.4949 56.6554 84.9491C56.4915 85.4619 56.3808 85.9901 56.3249 86.5254C56.2749 87.0544 56.2749 87.587 56.3249 88.116C56.4111 88.6749 56.4399 89.2481 56.5404 89.7353C56.641 90.2225 56.7272 90.6954 56.8135 91.1683C56.8997 91.6412 57.0146 92.0138 57.0865 92.372C57.1583 92.7303 57.2733 93.0312 57.3451 93.2891C57.4888 93.7907 57.5607 94.0916 57.5607 94.0916C57.5607 94.0916 57.417 93.848 57.1871 93.3751C57.0721 93.1315 56.914 92.8592 56.7703 92.5153C56.6267 92.1714 56.4686 91.7988 56.3105 91.3689C56.1525 90.939 56.0088 90.4375 55.8651 89.9359C55.7214 89.4344 55.6352 88.8755 55.5202 88.3166C55.4038 87.6786 55.3748 87.0278 55.434 86.3821C55.5067 85.7422 55.6513 85.1125 55.8651 84.5048C56.0524 83.8857 56.3934 83.3238 56.8566 82.8712C56.9796 82.7611 57.1145 82.665 57.2589 82.5846L57.6469 82.427C57.9272 82.3768 58.2143 82.3768 58.4947 82.427C58.7883 82.4876 59.0668 82.6063 59.3136 82.7761C59.5605 82.946 59.7706 83.1635 59.9316 83.4158C60.2265 83.8576 60.4541 84.3405 60.607 84.8488C60.8286 85.5794 60.9541 86.3357 60.9806 87.0986C60.9556 87.3403 60.9123 87.5798 60.8513 87.8151V87.8151Z" fill="#F2A57F"/>
<path d="M60.8512 87.8151C60.8512 87.8151 61.1099 87.2132 59.2419 87.0699C59.2419 87.0699 57.1583 87.4568 58.3797 90.2225C58.664 90.8262 58.8762 91.461 59.0119 92.1141C59.1987 93.0455 58.8683 94.3066 59.3568 95.1234C60.0034 96.1838 61.6416 95.5819 61.7421 94.3639C61.5696 93.2071 61.1157 92.1099 60.4202 91.1683C60.0532 90.6587 59.8937 90.0293 59.9737 89.407C60.0537 88.7848 60.3673 88.2159 60.8512 87.8151V87.8151Z" fill="#F2A57F"/>
<path d="M61.7422 94.2779C61.7986 94.3163 61.8474 94.3649 61.8859 94.4212C62.0006 94.5796 62.0925 94.7533 62.1589 94.9371C62.2075 95.0666 62.2412 95.2012 62.2595 95.3383C62.2886 95.4898 62.2886 95.6454 62.2595 95.7969C62.2595 95.9545 62.2595 96.1265 62.2595 96.2984C62.2595 96.4704 62.1589 96.5994 62.1158 96.757C62.0555 96.9058 61.9834 97.0496 61.9002 97.1869C61.814 97.3016 61.7134 97.4019 61.6272 97.5022C61.4797 97.6897 61.2796 97.8294 61.0524 97.9034C60.8535 97.9952 60.639 98.0487 60.4202 98.061C60.4956 97.8284 60.5918 97.603 60.7076 97.3875C60.755 97.2984 60.8077 97.2123 60.8656 97.1296L60.9949 96.8143C61.0421 96.7159 61.0949 96.6202 61.153 96.5277C61.1999 96.426 61.2383 96.3205 61.268 96.2125C61.3656 96.0205 61.4426 95.8187 61.4979 95.6106C61.5332 95.5123 61.562 95.4118 61.5841 95.3097C61.5841 95.195 61.5841 95.0947 61.6559 94.9944C61.7134 94.6218 61.7422 94.2779 61.7422 94.2779Z" fill="#F2A57F"/>
<path d="M93.0532 29.3056H92.1623C69.6597 29.5063 57.029 35.8975 60.5495 76.7953L64.3574 109.31C64.7515 111.334 65.6035 113.242 66.8486 114.889C68.0936 116.535 69.6988 117.876 71.5421 118.811L83.7993 127.939C83.7993 127.939 89.5471 130.519 92.6222 130.261C95.6254 130.519 101.431 127.939 101.431 127.939L113.645 118.911C115.488 117.977 117.093 116.635 118.338 114.989C119.583 113.343 120.435 111.435 120.829 109.41L124.91 77.5834C128.402 36.6426 115.556 29.5063 93.0532 29.3056Z" fill="#F4B88E"/>
<path d="M119.507 89.3484C118.703 92.8163 118.157 98.3763 115.901 101.343C115.127 102.356 114.136 103.183 112.999 103.763C111.863 104.344 110.61 104.662 109.334 104.696C107.53 104.777 105.722 104.657 103.945 104.338C102.607 103.911 101.238 103.59 99.85 103.377C98.4103 103.388 97.0057 103.821 95.8122 104.624C95.0383 105.031 94.1843 105.264 93.3103 105.307C92.4363 105.349 91.5637 105.199 90.7541 104.868C88.2568 103.853 85.6026 103.276 82.9084 103.163C79.8046 103.277 76.2409 104.108 73.209 103.163C69.9615 102.145 68.2659 99.3507 67.0014 96.4131C66.3116 94.8225 65.8231 91.0393 65.3345 89.3771C64.731 87.3279 63.7826 88.7465 61.9002 88.7179L64.3574 111.646C64.7535 113.669 65.6063 115.576 66.8511 117.223C68.0959 118.869 69.7001 120.211 71.5421 121.147L83.7705 130.175C83.7705 130.175 89.5183 132.754 92.5934 132.496C95.5966 132.754 101.402 130.175 101.402 130.175L113.616 121.132C115.458 120.2 117.063 118.861 118.308 117.217C119.553 115.573 120.406 113.668 120.801 111.646L123.502 88.245C121.447 88.2307 120.068 86.941 119.507 89.3484Z" fill="#472009"/>
<path d="M75.9823 79.4607C75.9823 81.5959 77.1893 83.3011 78.655 83.3011C80.1207 83.3011 81.2846 81.5529 81.2703 79.432C81.2559 77.3112 80.0632 75.5916 78.6119 75.6059C77.1606 75.6202 75.9823 77.3398 75.9823 79.4607Z" fill="#2F1807"/>
<path d="M77.6348 78.2426C77.6348 78.4694 77.5674 78.691 77.4411 78.8795C77.3148 79.0681 77.1352 79.215 76.9252 79.3018C76.7151 79.3885 76.484 79.4112 76.261 79.367C76.038 79.3228 75.8332 79.2136 75.6724 79.0533C75.5116 78.8929 75.4021 78.6887 75.3578 78.4663C75.3134 78.2439 75.3362 78.0134 75.4232 77.8039C75.5102 77.5944 75.6575 77.4154 75.8466 77.2894C76.0356 77.1635 76.2579 77.0962 76.4852 77.0962C76.7901 77.0962 77.0825 77.217 77.2981 77.432C77.5137 77.647 77.6348 77.9386 77.6348 78.2426Z" fill="white"/>
<path d="M109.391 79.4607C109.391 81.5959 108.184 83.3011 106.719 83.3011C105.253 83.3011 104.075 81.5529 104.089 79.432C104.103 77.3112 105.296 75.5916 106.762 75.6059C108.227 75.6202 109.406 77.3398 109.391 79.4607Z" fill="#2F1807"/>
<path d="M107.796 78.2426C107.796 78.47 107.864 78.6922 107.991 78.881C108.118 79.0698 108.298 79.2167 108.509 79.3031C108.72 79.3894 108.952 79.4113 109.175 79.3658C109.399 79.3204 109.604 79.2098 109.764 79.0481C109.924 78.8863 110.032 78.6807 110.075 78.4574C110.118 78.2341 110.093 78.0031 110.004 77.7939C109.915 77.5847 109.765 77.4067 109.574 77.2824C109.383 77.1582 109.159 77.0934 108.931 77.0962C108.781 77.0962 108.632 77.126 108.494 77.1838C108.355 77.2415 108.229 77.3262 108.124 77.4329C108.018 77.5395 107.935 77.666 107.879 77.805C107.822 77.944 107.794 78.0928 107.796 78.2426V78.2426Z" fill="white"/>
<path d="M96.6025 100.153C95.9825 100.751 95.2628 101.235 94.4758 101.586C93.6706 101.95 92.8118 102.183 91.9324 102.274C91.4546 102.322 90.9732 102.322 90.4954 102.274C90.0614 102.269 89.6287 102.226 89.2022 102.145C88.7401 102.048 88.288 101.909 87.8515 101.73C87.4166 101.558 86.9941 101.357 86.5869 101.128L86.0409 100.827L85.9259 99.9383C85.9259 99.5514 85.8397 99.2074 85.8254 98.8349C85.811 98.4623 85.8254 98.1184 85.8254 97.7601C85.8565 97.0459 85.9527 96.3361 86.1127 95.6393C86.2678 94.9296 86.509 94.2415 86.8312 93.5901C87.142 92.8873 87.5641 92.239 88.0814 91.6699C88.3613 92.3669 88.5637 93.0926 88.6849 93.8337C88.8093 94.5106 88.8862 95.1953 88.9148 95.8829C88.9148 96.5564 88.9148 97.2299 88.9148 97.9034V98.8922C88.9148 99.2218 88.9148 99.5657 88.8142 99.8523L88.1676 98.7059C88.455 98.8779 88.7136 99.1071 89.0154 99.2648C89.3097 99.445 89.6171 99.6031 89.935 99.7377C90.2368 99.881 90.5817 99.9669 90.9122 100.096C91.2426 100.225 91.6019 100.282 91.9611 100.34C92.3273 100.4 92.6968 100.438 93.0676 100.454C93.4505 100.476 93.8342 100.476 94.2171 100.454C95.0194 100.422 95.8174 100.321 96.6025 100.153V100.153Z" fill="#EBA17D"/>
<path d="M84.2304 71.6222C84.1267 72.081 83.8528 72.4838 83.4636 72.7496C83.0745 73.0154 82.5989 73.1246 82.1324 73.0552C78.5485 72.3925 74.852 72.6992 71.4272 73.9436C70.9838 74.0712 70.5093 74.0358 70.09 73.8438C69.6706 73.6518 69.3344 73.316 69.1424 72.8975V72.8975C69.0296 72.683 68.9643 72.4468 68.951 72.205C68.9376 71.9631 68.9766 71.7212 69.0652 71.4956C69.1537 71.2701 69.2898 71.0661 69.4643 70.8976C69.6388 70.729 69.8475 70.5998 70.0764 70.5188C74.1025 69.0342 78.4529 68.6483 82.6785 69.401C82.9303 69.4404 83.1716 69.5303 83.3875 69.6655C83.6035 69.8006 83.7897 69.9781 83.9348 70.1871C84.0799 70.3961 84.181 70.6324 84.2318 70.8815C84.2826 71.1307 84.2821 71.3875 84.2304 71.6365V71.6222Z" fill="#472009"/>
<path d="M100.18 71.6222C100.284 72.081 100.558 72.4838 100.947 72.7496C101.336 73.0154 101.812 73.1246 102.278 73.0552C105.862 72.3925 109.559 72.6992 112.984 73.9436C113.427 74.0712 113.902 74.0358 114.321 73.8438C114.74 73.6518 115.076 73.316 115.268 72.8975V72.8975C115.381 72.683 115.447 72.4468 115.46 72.205C115.473 71.9631 115.434 71.7212 115.346 71.4956C115.257 71.2701 115.121 71.0661 114.947 70.8976C114.772 70.729 114.563 70.5998 114.334 70.5188C110.308 69.0342 105.958 68.6483 101.732 69.401C101.48 69.4384 101.237 69.5271 101.02 69.6617C100.803 69.7963 100.616 69.9738 100.471 70.1834C100.325 70.3929 100.224 70.63 100.174 70.8799C100.125 71.1299 100.127 71.3874 100.18 71.6365V71.6222Z" fill="#472009"/>
<path d="M93.8148 114.512C92.7748 114.752 91.6935 114.752 90.6535 114.512" stroke="#E89780" stroke-linecap="round" stroke-linejoin="round"/>
<path d="M85.1069 107.992L86.9462 111.589C86.9462 111.589 95.1656 116.203 100.956 108.164C95.6741 108.393 90.3831 108.336 85.1069 107.992V107.992Z" fill="white"/>
<path d="M76.7008 38.7061C76.7008 38.7061 85.1069 48.8375 104.089 51.5172C104.089 51.5172 123.387 58.1663 123.129 69.0141L119.723 88.6892L123.574 88.288C123.574 88.288 123.689 80.3635 127.885 80.2488C127.885 80.2488 131.707 64.3282 131.65 61.6198C131.592 58.9115 126.275 31.928 126.275 31.928L105.612 17.1825C105.612 17.1825 83.2389 13.9009 72.8497 9.00003C72.8497 9.00003 75.2207 15.2766 78.6837 17.1825C78.6837 17.1825 65.7512 18.6155 64.5011 18.2715C63.2509 17.9276 66.2973 25.0783 66.2973 25.0783L55.4052 41.7011L57.5032 80.2488C57.5032 80.2488 60.8656 80.5784 61.9002 88.6892H65.0615L64.4867 63.9556C64.4867 63.9556 68.9556 48.6512 76.7008 38.7061Z" fill="#472009"/>
<path d="M75.8386 37.8033C71.9891 34.1468 68.7317 29.9169 66.1823 25.2646L55.4052 41.7011V41.8014C58.9688 47.5334 62.5181 53.1794 66.2685 58.7395C68.2371 53.3944 71.8151 44.9827 76.7008 38.6775C77.7246 39.8231 78.8553 40.8691 80.0776 41.8014C78.6263 40.526 77.2181 39.1934 75.8386 37.8033Z" fill="#341000"/>
<path d="M92.4928 156.871L89.9351 143.831L76.3703 135.649L74.4017 143.874L92.4928 156.871Z" fill="#717EBA"/>
<path d="M92.4928 156.871L95.0506 143.831L108.601 135.649L110.584 143.874L92.4928 156.871Z" fill="#717EBA"/>
<path d="M98.9735 145.594H86.041C85.2458 146.071 84.6444 146.812 84.3422 147.687C84.0401 148.562 84.0564 149.516 84.3885 150.38L88.5125 156.871H96.5307L100.64 150.38C100.971 149.514 100.985 148.56 100.68 147.684C100.376 146.809 99.7712 146.069 98.9735 145.594V145.594Z" fill="#6A54A1"/>
<g style="mix-blend-mode:multiply">
<path d="M99.85 146.339C100.117 147.619 100.027 148.947 99.5914 150.179C99.213 151.504 98.4766 152.699 97.4629 153.634C96.4491 154.569 95.1971 155.208 93.8436 155.481C92.622 155.774 91.3348 155.598 90.2378 154.987C89.1408 154.376 88.3146 153.376 87.9234 152.185C87.248 149.893 86.8744 147.299 88.3257 145.594H86.041C85.2458 146.071 84.6444 146.812 84.3422 147.687C84.0401 148.562 84.0564 149.516 84.3885 150.38L88.5125 156.871H96.5307L100.64 150.38C100.933 149.705 101.014 148.959 100.873 148.237C100.732 147.516 100.375 146.854 99.85 146.339V146.339Z" fill="#6A54A1"/>
</g>
<path d="M88.4837 156.871L84.0579 180H100.956L96.5019 156.871H88.4837Z" fill="#6A54A1"/>
<path d="M89.935 143.831L83.5263 155.539L67.8492 144.92L76.3703 135.649L89.935 143.831Z" fill="#86B4DB"/>
<path d="M95.0506 143.831L101.459 155.539L117.136 144.92L108.601 135.649L95.0506 143.831Z" fill="#86B4DB"/>
</g>
</svg>
